PathFileType  4	(X/Y/Z) C:\Users\antoi\Documents\MyRepositories\mobilecap\ResultsAnalysis
DataRate	CameraRate	NumFrames	NumMarkers	Units	OrigDataRate	OrigDataStartFrame	OrigNumFrames
100.0	100.0	5	51	mm	100.0	255	291
Frame#	Time	r_knee			r_shank_antsup			r_ankle			r_calc			r_5meta			r_toe			L_knee			L_shank_antsup			L_ankle			L_calc			L_5meta			L_toe			r_sh2			r_sh3			r_sh4			L_sh2			L_sh3			r_thigh1			r_thigh2			r_thigh3			r_thigh4			r_thigh5			L_thigh1			L_thigh2			L_thigh3			L_thigh4			r.ASIS			r.PSIS			L.ASIS			L.PSIS			C7			R_Shoulder			L_Shoulder			R_Sternum			L_Sternum			R_humerus			R_elbow_med			R_elbow_lat			R_forearm			R_wrist_radius			R_wrist_ulna			L_humerus			L_elbow_med			L_elbow_lat			L_forearm			L_wrist_radius			L_wrist_ulna			R_HJC			L_HJC			R_HJC_reg			L_HJC_reg			
		X1	Y1	Z1	X2	Y2	Z2	X3	Y3	Z3	X4	Y4	Z4	X5	Y5	Z5	X6	Y6	Z6	X7	Y7	Z7	X8	Y8	Z8	X9	Y9	Z9	X10	Y10	Z10	X11	Y11	Z11	X12	Y12	Z12	X13	Y13	Z13	X14	Y14	Z14	X15	Y15	Z15	X16	Y16	Z16	X17	Y17	Z17	X18	Y18	Z18	X19	Y19	Z19	X20	Y20	Z20	X21	Y21	Z21	X22	Y22	Z22	X23	Y23	Z23	X24	Y24	Z24	X25	Y25	Z25	X26	Y26	Z26	X27	Y27	Z27	X28	Y28	Z28	X29	Y29	Z29	X30	Y30	Z30	X31	Y31	Z31	X32	Y32	Z32	X33	Y33	Z33	X34	Y34	Z34	X35	Y35	Z35	X36	Y36	Z36	X37	Y37	Z37	X38	Y38	Z38	X39	Y39	Z39	X40	Y40	Z40	X41	Y41	Z41	X42	Y42	Z42	X43	Y43	Z43	X44	Y44	Z44	X45	Y45	Z45	X46	Y46	Z46	X47	Y47	Z47	X48	Y48	Z48	X49	Y49	Z49	X50	Y50	Z50	X51	Y51	Z51	

255	2.54000000	-194.15288	798.44012	-374.25469	-232.62270	755.87193	-343.96703	-250.71753	397.53731	-374.39466	-306.64589	403.68957	-432.69661	-183.51283	273.53006	-339.33322	-125.56888	273.95910	-382.13529	-196.47864	791.10603	-746.44105	-169.15824	714.43801	-763.13042	-168.05392	387.00730	-729.81813	-222.25967	380.67553	-668.55480	-78.30154	274.74496	-749.63894	-20.86368	290.79290	-709.40902	-241.31294	640.08727	-335.36744	-160.38089	751.57106	-371.90564	-167.67792	637.78122	-373.57578	-257.83988	712.02909	-760.09559	-240.94190	591.30562	-760.31764	-101.89197	1087.73897	-451.23054	-94.41778	977.92128	-433.22743	-116.51684	963.15496	-370.42987	-167.12963	1096.85402	-361.41695	-164.58559	982.76602	-347.64062	-152.43382	1115.38325	-746.29151	-152.08358	975.01250	-768.26269	-264.44333	1113.40158	-742.24416	-260.76514	972.84724	-731.30228	-123.17050	1273.12759	-436.19350	-301.46104	1308.03128	-518.37490	-114.29686	1256.36281	-664.94799	-298.59242	1307.80324	-615.00942	-212.40993	1759.91832	-577.20827	-152.68421	1740.28863	-413.36845	-138.41101	1729.07177	-723.36997	-89.24608	1678.22508	-546.50564	-86.73254	1678.19776	-582.89984	-146.32835	1527.77770	-297.00650	-172.97786	1403.64524	-325.26530	-149.73521	1436.21341	-263.85937	-60.35577	1529.74373	-311.23012	-24.64930	1603.95943	-367.57691	11.13814	1585.27460	-347.94076	-94.03419	1520.45014	-821.18102	-97.02079	1389.97765	-780.21300	-72.79216	1413.02499	-849.69961	6.89256	1516.37347	-777.42739	27.36717	1596.19016	-713.92127	66.18835	1574.80923	-711.37255	-196.19385	1192.01655	-467.49720	-199.30075	1190.49145	-658.13675	-190.16996	1197.09255	-469.44673	-185.67376	1196.73320	-620.87526	
256	2.55000000	-198.51028	800.82698	-372.92140	-236.04630	757.70375	-343.06525	-247.44499	398.20129	-374.82703	-302.55757	404.00677	-433.82373	-178.58473	274.52523	-340.89460	-119.93482	277.05169	-382.54572	-197.48561	792.31329	-746.79395	-169.56253	715.86969	-763.77346	-169.61423	388.49117	-731.42002	-223.91727	381.34524	-670.20507	-79.33165	276.82006	-751.96093	-22.16837	292.70316	-711.46528	-242.60364	641.30173	-334.29668	-163.81742	754.41252	-371.02031	-168.99561	640.43147	-372.90585	-258.24207	713.73444	-761.44885	-241.73429	592.99050	-762.11450	-105.31495	1089.00977	-451.99661	-98.52248	979.45096	-433.08884	-120.06516	964.99910	-370.30039	-169.68447	1099.08908	-361.58917	-167.63061	985.13605	-346.90481	-155.23208	1116.79570	-746.98981	-154.83511	976.30887	-768.70161	-267.20345	1114.61156	-742.09959	-263.13293	973.95870	-729.93185	-125.13035	1274.95628	-436.91829	-302.65359	1311.85993	-520.05200	-115.76225	1258.49819	-664.83613	-299.69697	1310.63049	-616.21647	-213.22444	1760.70934	-577.99041	-154.49956	1741.89388	-414.14576	-140.17696	1731.39897	-724.75509	-89.96722	1680.33700	-547.38689	-87.64043	1680.03353	-583.18733	-149.74687	1528.47753	-298.50324	-178.52288	1404.78901	-327.22810	-154.01100	1436.81995	-265.86601	-64.03226	1529.23489	-314.05697	-27.78358	1602.96449	-370.61139	7.93188	1583.93345	-351.28554	-96.51152	1521.85452	-822.97310	-98.95886	1391.49029	-781.83061	-74.59972	1414.39779	-850.91956	5.62541	1516.97603	-777.82160	26.32814	1596.28657	-713.73447	65.00813	1574.68343	-711.30073	-198.76359	1194.64553	-468.24115	-201.03488	1192.99209	-658.89176	-192.95194	1201.26780	-469.44982	-188.31354	1199.33842	-620.31081	
257	2.56000000	-201.47610	802.28416	-371.51692	-237.41761	758.43026	-341.94659	-244.36057	398.15619	-375.60165	-298.91834	404.03914	-435.12356	-174.32964	274.86549	-342.61828	-115.16523	278.93629	-383.29983	-197.70922	792.66867	-747.06140	-169.60370	716.22957	-764.36548	-172.32735	389.05099	-733.32267	-226.65031	381.50607	-671.95250	-82.23913	277.38964	-754.56828	-25.14875	292.74433	-713.74321	-242.82087	641.74317	-333.45398	-165.78937	756.16093	-371.00245	-169.29188	642.03693	-372.81794	-258.30261	714.76457	-762.81143	-242.71328	593.81599	-763.91991	-108.79409	1089.71570	-452.15201	-102.25445	980.37937	-432.61347	-123.44998	966.18094	-369.89914	-172.57345	1100.54650	-361.42978	-170.74628	986.57604	-346.19583	-157.77024	1117.42289	-747.47853	-156.99334	976.99275	-769.14903	-269.70849	1114.67128	-741.40046	-264.86566	974.22979	-729.08963	-127.21754	1275.61528	-437.44890	-304.09084	1314.39362	-521.51546	-117.51931	1259.42016	-665.02431	-301.05046	1312.03189	-617.49255	-213.96640	1760.74249	-578.88624	-155.87849	1742.38297	-415.15122	-141.29381	1732.44357	-725.68092	-90.66458	1681.16445	-548.13694	-88.07714	1680.19395	-584.27385	-152.87758	1528.54326	-299.80131	-183.33187	1405.26703	-328.56890	-157.81161	1436.71813	-267.69017	-67.25789	1528.14169	-316.61194	-30.58650	1601.32971	-373.54417	5.14058	1582.08224	-354.30446	-98.77374	1522.35410	-825.07817	-100.44978	1392.04329	-783.67979	-75.97178	1414.72389	-852.17894	4.53483	1516.90373	-778.54235	25.19718	1595.82056	-713.97118	63.88293	1574.14692	-711.61770	-201.41027	1196.03952	-468.96519	-202.98951	1194.20220	-659.62134	-195.93730	1204.23260	-469.28816	-191.16699	1200.52823	-619.88155	
258	2.57000000	-203.25823	802.48006	-371.10597	-237.45618	758.00276	-340.73007	-241.65310	397.23219	-376.30224	-296.20532	403.32593	-435.86643	-170.38290	274.59249	-344.06648	-111.02797	279.85572	-384.37693	-197.26112	792.29364	-747.63728	-169.48771	715.55470	-765.11427	-175.93868	388.66235	-735.16668	-230.27214	381.17471	-673.73128	-86.84304	276.60753	-757.41731	-29.59453	291.04360	-716.26978	-241.92484	641.49497	-332.62769	-166.71262	756.73487	-371.66569	-169.04608	642.48728	-373.21344	-258.16197	715.06461	-764.02784	-243.90833	593.92941	-765.47274	-112.08524	1089.88526	-451.67541	-105.50834	980.60444	-431.90764	-126.65445	966.63473	-369.20749	-175.83769	1101.11192	-361.08818	-174.03587	987.08771	-345.56993	-159.79598	1117.26913	-747.72208	-158.43109	976.99181	-769.79016	-271.76109	1113.68472	-740.54628	-265.92743	973.58838	-728.91612	-129.46350	1275.19196	-437.75430	-305.84626	1315.51686	-522.51555	-119.38658	1259.00086	-665.45270	-302.64689	1312.06055	-618.58975	-214.63040	1760.15311	-580.05624	-156.87341	1741.92162	-416.23695	-141.55219	1732.17882	-726.37859	-91.83732	1681.35305	-548.20408	-88.60202	1679.34820	-585.32888	-155.68455	1527.95940	-300.77931	-187.47276	1405.05303	-329.50721	-161.03158	1435.86289	-269.38945	-69.97389	1526.41416	-318.82012	-32.93341	1599.14069	-376.29188	2.79276	1579.60428	-357.14507	-100.48106	1521.96187	-827.29818	-101.41148	1391.53451	-785.52308	-76.96459	1414.28617	-854.02657	3.62514	1516.15640	-779.68687	24.12350	1594.75949	-714.59498	62.86347	1573.13030	-712.23546	-204.07346	1196.19811	-469.49614	-205.14390	1194.06957	-660.15270	-199.01206	1205.68009	-469.07756	-193.99641	1200.26187	-619.70217	
259	2.58000000	-204.40236	801.45604	-371.45184	-237.11132	756.64992	-339.80560	-239.40981	395.78544	-376.19187	-294.41441	401.50814	-435.59048	-166.66902	273.66597	-344.94407	-107.50781	279.91946	-385.41170	-196.28798	791.31958	-748.73018	-169.28456	713.84631	-766.08289	-180.28488	387.32469	-736.85431	-234.67646	380.18956	-675.70291	-92.74592	274.65259	-760.32232	-35.25392	287.95773	-719.24539	-240.56553	640.34873	-331.95012	-167.11020	756.14333	-372.53591	-168.60916	641.85504	-373.99589	-257.88436	714.61073	-765.03710	-245.27313	593.34967	-766.80329	-115.01345	1089.37924	-450.76858	-108.22259	980.04452	-431.01207	-129.66599	966.21438	-368.19711	-179.34117	1100.61323	-360.70572	-177.36907	986.58646	-344.99446	-161.27680	1116.28543	-747.71068	-159.15166	976.08717	-770.38803	-273.27827	1111.85232	-740.09074	-266.47021	971.86688	-729.02498	-131.92358	1273.76361	-437.86093	-307.91045	1315.02732	-523.19996	-121.25926	1257.22202	-665.85851	-304.50850	1310.80418	-619.36978	-215.22750	1758.93307	-581.54448	-157.54697	1740.59554	-417.19302	-140.99215	1730.64452	-727.22146	-93.21462	1680.73418	-547.97589	-89.45128	1677.81353	-586.08684	-158.16022	1526.58631	-301.53606	-190.98641	1403.92164	-330.60398	-163.65967	1434.29312	-270.85450	-72.17425	1524.02124	-320.73545	-34.88136	1596.41951	-378.72445	0.81825	1576.45672	-359.86691	-101.35176	1520.64463	-829.38713	-101.79037	1389.99526	-787.34067	-77.53612	1413.05147	-856.21946	2.91558	1514.63571	-780.99252	23.20306	1593.04803	-715.45595	61.93351	1571.49390	-713.14167	-206.75238	1195.11215	-469.76710	-207.37819	1192.58329	-660.42084	-201.94920	1205.26814	-468.92863	-196.61475	1198.64590	-619.72802	
